<svg width="21" height="21" viewBox="0 0 21 21" fill="none" xmlns="http://www.w3.org/2000/svg">
<path d="M16.04 5.99L15.41 4.59L14.01 3.96C13.62 3.78 13.62 3.23 14.01 3.05L15.41 2.42L16.04 1.02C16.22 0.63 16.77 0.63 16.95 1.02L17.58 2.42L18.98 3.05C19.37 3.23 19.37 3.78 18.98 3.96L17.58 4.59L16.95 5.99C16.78 6.38 16.22 6.38 16.04 5.99ZM19.28 10.72L18.96 10C18.78 9.61 18.23 9.61 18.05 10L17.73 10.72L17 11.04C16.61 11.22 16.61 11.77 17 11.95L17.72 12.27L18.04 13C18.22 13.39 18.77 13.39 18.95 13L19.27 12.28L20 11.96C20.39 11.78 20.39 11.23 20 11.05L19.28 10.72ZM14.24 12.37L15.47 13.3C15.87 13.6 15.98 14.16 15.73 14.6L14.11 17.4C13.86 17.84 13.32 18.02 12.86 17.82L11.43 17.22C11.23 17.35 11.01 17.48 10.79 17.59L10.6 19.13C10.54 19.63 10.11 20.01 9.61001 20.01H6.38001C5.88001 20.01 5.45001 19.63 5.39001 19.13L5.20001 17.59C4.98001 17.48 4.77001 17.36 4.56001 17.22L3.13001 17.82C2.67001 18.02 2.13001 17.84 1.88001 17.4L0.260007 14.6C0.0100069 14.16 0.120007 13.61 0.520007 13.3L1.75001 12.37C1.75001 12.25 1.75001 12.12 1.75001 12C1.75001 11.88 1.75001 11.75 1.76001 11.63L0.530007 10.7C0.130007 10.4 0.0200069 9.84 0.270007 9.4L1.89001 6.6C2.14001 6.16 2.68001 5.98 3.14001 6.18L4.57001 6.78C4.77001 6.65 4.99001 6.52 5.21001 6.41L5.40001 4.87C5.45001 4.38 5.88001 4 6.38001 4H9.61001C10.11 4 10.54 4.38 10.6 4.88L10.79 6.42C11.01 6.53 11.22 6.65 11.43 6.79L12.86 6.19C13.32 5.99 13.86 6.17 14.11 6.61L15.73 9.41C15.98 9.85 15.87 10.4 15.47 10.71L14.24 11.64C14.25 11.76 14.25 11.88 14.25 12.01C14.25 12.14 14.25 12.25 14.24 12.37ZM11 12C11 10.34 9.66001 9 8.00001 9C6.34001 9 5.00001 10.34 5.00001 12C5.00001 13.66 6.34001 15 8.00001 15C9.66001 15 11 13.66 11 12Z" fill="#FF9400"/>
</svg>
